<?xml version="1.0" standalone="no"?>
<!DOCTYPE svg PUBLIC "-//W3C//DTD SVG 1.1//EN" "http://www.w3.org/Graphics/SVG/1.1/DTD/svg11.dtd">
<!--Generator: Xara Designer (www.xara.com), SVG filter version: 4.0.0.1-->
<svg stroke-width="0.501" stroke-linejoin="bevel" fill-rule="evenodd" xmlns:xlink="http://www.w3.org/1999/xlink" xmlns="http://www.w3.org/2000/svg" version="1.1" overflow="visible" width="282.96pt" height="31.68pt" viewBox="0 0 282.96 31.68">
 <defs>
  <marker id="DefaultArrow2" markerUnits="strokeWidth" viewBox="0 0 1 1" markerWidth="1" markerHeight="1" overflow="visible" orient="auto">
   <!-- REF_ARROW_STRAIGHT (-2) -->
   <g transform="scale(0.0092592592)">
    <!-- 1/108 -->
    <path d="M -9 54 L -9 -54 L 117 0 z"/>
   </g>
  </marker>
  <marker id="DefaultArrow3" markerUnits="strokeWidth" viewBox="0 0 1 1" markerWidth="1" markerHeight="1" overflow="visible" orient="auto">
   <!-- REF_ARROW_ANGLED -->
   <g transform="scale(0.0092592592)">
    <path d="M -27 54 L -9 0 L -27 -54 L 135 0 z"/>
   </g>
  </marker>
  <marker id="DefaultArrow4" markerUnits="strokeWidth" viewBox="0 0 1 1" markerWidth="1" markerHeight="1" overflow="visible" orient="auto">
   <!-- REF_ARROW_ROUNDED -->
   <g transform="scale(0.0092592592)">
    <path d="M -9,0 L -9,-45 C -9,-51.708 2.808,-56.580 9,-54 L 117,-9 C 120.916,-7.369 126.000,-4.242 126,0 C 126,4.242 120.916,7.369 117,9 L 9,54 C 2.808,56.580 -9,51.708 -9,45 z"/>
   </g>
  </marker>
  <marker id="DefaultArrow5" markerUnits="strokeWidth" viewBox="0 0 1 1" markerWidth="1" markerHeight="1" overflow="visible" orient="auto">
   <!-- REF_ARROW_SPOT -->
   <g transform="scale(0.0092592592)">
    <path d="M -54, 0 C -54,29.807 -29.807,54 0,54 C 29.807,54 54,29.807 54,0 C 54,-29.807 29.807,-54 0,-54 C -29.807,-54 -54,-29.807 -54,0 z"/>
   </g>
  </marker>
  <marker id="DefaultArrow6" markerUnits="strokeWidth" viewBox="0 0 1 1" markerWidth="1" markerHeight="1" overflow="visible" orient="auto">
   <!-- REF_ARROW_DIAMOND -->
   <g transform="scale(0.0092592592)">
    <path d="M -63,0 L 0,63 L 63,0 L 0,-63 z"/>
   </g>
  </marker>
  <marker id="DefaultArrow7" markerUnits="strokeWidth" viewBox="0 0 1 1" markerWidth="1" markerHeight="1" overflow="visible" orient="auto">
   <!-- REF_ARROW_FEATHER -->
   <g transform="scale(0.0092592592)">
    <path d="M 18,-54 L 108,-54 L 63,0 L 108,54 L 18, 54 L -36,0 z"/>
   </g>
  </marker>
  <marker id="DefaultArrow8" markerUnits="strokeWidth" viewBox="0 0 1 1" markerWidth="1" markerHeight="1" overflow="visible" orient="auto">
   <!-- REF_ARROW_FEATHER2 -->
   <g transform="scale(0.0092592592)">
    <path d="M -36,0 L 18,-54 L 54,-54 L 18,-18 L 27,-18 L 63,-54 L 99,-54 L 63,-18 L 72,-18 L 108,-54 L 144,-54 L 90,0 L 144,54 L 108,54 L 72,18 L 63,18 L 99,54 L 63,54 L 27,18 L 18,18 L 54,54 L 18,54 z"/>
   </g>
  </marker>
  <marker id="DefaultArrow9" markerUnits="strokeWidth" viewBox="0 0 1 1" markerWidth="1" markerHeight="1" overflow="visible" orient="auto">
   <!-- REF_ARROW_HOLLOWDIAMOND -->
   <g transform="scale(0.0092592592)">
    <path d="M 0,45 L -45,0 L 0, -45 L 45, 0 z M 0, 63 L-63, 0 L 0, -63 L 63, 0 z"/>
   </g>
  </marker>
  <filter id="StainedFilter">
   <feBlend mode="multiply" in2="BackgroundImage" in="SourceGraphic" result="blend"/>
   <feComposite in="blend" in2="SourceAlpha" operator="in" result="comp"/>
  </filter>
  <filter id="BleachFilter">
   <feBlend mode="screen" in2="BackgroundImage" in="SourceGraphic" result="blend"/>
   <feComposite in="blend" in2="SourceAlpha" operator="in" result="comp"/>
  </filter>
  <filter id="InvertTransparencyBitmapFilter">
   <feComponentTransfer>
    <feFuncR type="gamma" amplitude="1.055" exponent=".416666666" offset="-0.055"/>
    <feFuncG type="gamma" amplitude="1.055" exponent=".416666666" offset="-0.055"/>
    <feFuncB type="gamma" amplitude="1.055" exponent=".416666666" offset="-0.055"/>
   </feComponentTransfer>
   <feComponentTransfer>
    <feFuncR type="linear" slope="-1" intercept="1"/>
    <feFuncG type="linear" slope="-1" intercept="1"/>
    <feFuncB type="linear" slope="-1" intercept="1"/>
    <feFuncA type="linear" slope="1" intercept="0"/>
   </feComponentTransfer>
   <feComponentTransfer>
    <feFuncR type="gamma" amplitude="1" exponent="2.4" offset="0"/>
    <feFuncG type="gamma" amplitude="1" exponent="2.4" offset="0"/>
    <feFuncB type="gamma" amplitude="1" exponent="2.4" offset="0"/>
   </feComponentTransfer>
  </filter>
 </defs>
 <g id="Document" fill="none" stroke="black" font-family="Times New Roman" font-size="16" transform="scale(1 -1)">
  <g id="Spread" transform="translate(0 -31.68)">
   <g id="Layer 1">
    <g id="Group" fill-rule="nonzero" stroke-linejoin="round" stroke-linecap="round" stroke="none" stroke-width="0.25" fill="#4f0005" stroke-miterlimit="79.8403193612775">
     <path d="M 19.527,0.088 L 11.905,0.088 L 11.905,3.137 L 19.527,3.137 L 19.527,0.088 Z" marker-start="none" marker-end="none"/>
     <path d="M 19.527,4.153 L 11.905,4.153 L 11.905,7.202 L 19.527,7.202 L 19.527,4.153 Z" marker-start="none" marker-end="none"/>
     <path d="M 19.527,8.219 L 11.905,8.219 L 11.905,11.267 L 19.527,11.267 L 19.527,8.219 Z" marker-start="none" marker-end="none"/>
     <path d="M 19.527,12.284 L 11.905,12.284 L 11.905,15.333 L 19.527,15.333 L 19.527,12.284 Z" marker-start="none" marker-end="none"/>
     <path d="M 19.527,16.349 L 11.905,16.349 L 11.905,19.398 L 19.527,19.398 L 19.527,16.349 Z" marker-start="none" marker-end="none"/>
     <path d="M 19.527,20.414 L 11.905,20.414 L 11.905,23.463 L 19.527,23.463 L 19.527,20.414 Z" marker-start="none" marker-end="none"/>
     <path d="M 30.452,24.479 L -0.037,24.479 L -0.037,27.528 L 30.452,27.528 L 30.452,24.479 Z" marker-start="none" marker-end="none"/>
     <path d="M 30.452,28.544 L -0.037,28.544 L -0.037,31.593 L 30.452,31.593 L 30.452,28.544 Z" marker-start="none" marker-end="none"/>
     <path d="M 41.13,4.153 L 33.508,4.153 L 33.508,7.202 L 41.13,7.202 L 41.13,4.153 Z" marker-start="none" marker-end="none"/>
     <path d="M 41.13,8.219 L 33.508,8.219 L 33.508,11.267 L 41.13,11.267 L 41.13,8.219 Z" marker-start="none" marker-end="none"/>
     <path d="M 63.997,1.105 C 63.997,0.766 63.963,0.427 63.895,0.088 L 33.61,0.088 C 33.542,0.427 33.508,0.766 33.508,1.105 L 33.508,3.137 L 63.997,3.137 L 63.997,1.105 Z" marker-start="none" marker-end="none"/>
     <path d="M 41.13,12.284 L 33.508,12.284 L 33.508,15.333 L 41.13,15.333 L 41.13,12.284 Z" marker-start="none" marker-end="none"/>
     <path d="M 41.13,16.349 L 33.508,16.349 L 33.508,19.398 L 41.13,19.398 L 41.13,16.349 Z" marker-start="none" marker-end="none"/>
     <path d="M 41.13,20.414 L 33.508,20.414 L 33.508,23.463 L 41.13,23.463 L 41.13,20.414 Z" marker-start="none" marker-end="none"/>
     <path d="M 63.997,4.153 L 56.375,4.153 L 56.375,7.202 L 63.997,7.202 L 63.997,4.153 Z" marker-start="none" marker-end="none"/>
     <path d="M 63.997,8.219 L 56.375,8.219 L 56.375,11.267 L 63.997,11.267 L 63.997,8.219 Z" marker-start="none" marker-end="none"/>
     <path d="M 63.997,12.284 L 56.375,12.284 L 56.375,15.333 L 63.997,15.333 L 63.997,12.284 Z" marker-start="none" marker-end="none"/>
     <path d="M 63.997,24.479 L 33.508,24.479 L 33.508,26.512 C 33.508,26.85 33.542,27.189 33.61,27.528 L 63.895,27.528 C 63.963,27.189 63.997,26.85 63.997,26.512 L 63.997,24.479 Z" marker-start="none" marker-end="none"/>
     <path d="M 63.997,16.349 L 56.375,16.349 L 56.375,19.398 L 63.997,19.398 L 63.997,16.349 Z" marker-start="none" marker-end="none"/>
     <path d="M 63.59,28.544 L 33.915,28.544 C 34.796,30.577 36.354,31.593 38.59,31.593 L 58.915,31.593 C 61.151,31.593 62.709,30.577 63.59,28.544 Z" marker-start="none" marker-end="none"/>
     <path d="M 63.997,20.414 L 56.375,20.414 L 56.375,23.463 L 63.997,23.463 L 63.997,20.414 Z" marker-start="none" marker-end="none"/>
     <path d="M 74.675,0.088 L 67.053,0.088 L 67.053,3.137 L 74.675,3.137 L 74.675,0.088 Z" marker-start="none" marker-end="none"/>
     <path d="M 74.675,4.153 L 67.053,4.153 L 67.053,7.202 L 74.675,7.202 L 74.675,4.153 Z" marker-start="none" marker-end="none"/>
     <path d="M 74.675,8.219 L 67.053,8.219 L 67.053,11.267 L 74.675,11.267 L 74.675,8.219 Z" marker-start="none" marker-end="none"/>
     <path d="M 92.867,3.137 L 91.393,0.088 L 81.332,0.088 L 79.859,3.137 L 92.867,3.137 Z" marker-start="none" marker-end="none"/>
     <path d="M 84.076,12.284 L 75.438,12.284 L 74.675,13.808 L 74.675,12.284 L 67.053,12.284 L 67.053,15.333 L 82.552,15.333 L 84.076,12.284 Z" marker-start="none" marker-end="none"/>
     <path d="M 86.007,8.219 L 77.369,8.219 L 75.895,11.267 L 84.533,11.267 L 86.007,8.219 Z" marker-start="none" marker-end="none"/>
     <path d="M 94.849,7.202 L 93.375,4.153 L 79.35,4.153 L 77.877,7.202 L 94.849,7.202 Z" marker-start="none" marker-end="none"/>
     <path d="M 82.094,16.349 L 67.053,16.349 L 67.053,19.398 L 80.621,19.398 L 82.094,16.349 Z" marker-start="none" marker-end="none"/>
     <path d="M 80.113,20.414 L 67.053,20.414 L 67.053,23.463 L 78.639,23.463 L 80.113,20.414 Z" marker-start="none" marker-end="none"/>
     <path d="M 78.131,24.479 L 67.053,24.479 L 67.053,27.528 L 76.657,27.528 L 78.131,24.479 Z" marker-start="none" marker-end="none"/>
     <path d="M 96.83,11.267 L 95.357,8.219 L 86.718,8.219 L 88.192,11.267 L 96.83,11.267 Z" marker-start="none" marker-end="none"/>
     <path d="M 76.149,28.544 L 67.053,28.544 L 67.053,31.593 L 74.675,31.593 L 76.149,28.544 Z" marker-start="none" marker-end="none"/>
     <path d="M 105.672,0.088 L 98.05,0.088 L 98.05,3.137 L 105.672,3.137 L 105.672,0.088 Z" marker-start="none" marker-end="none"/>
     <path d="M 105.672,4.153 L 98.05,4.153 L 98.05,7.202 L 105.672,7.202 L 105.672,4.153 Z" marker-start="none" marker-end="none"/>
     <path d="M 105.672,12.284 L 98.05,12.284 L 98.05,13.808 L 97.288,12.284 L 88.649,12.284 L 90.174,15.333 L 105.672,15.333 L 105.672,12.284 Z" marker-start="none" marker-end="none"/>
     <path d="M 105.672,8.219 L 98.05,8.219 L 98.05,11.267 L 105.672,11.267 L 105.672,8.219 Z" marker-start="none" marker-end="none"/>
     <path d="M 105.672,16.349 L 90.631,16.349 L 92.105,19.398 L 105.672,19.398 L 105.672,16.349 Z" marker-start="none" marker-end="none"/>
     <path d="M 105.672,20.414 L 92.613,20.414 L 94.086,23.463 L 105.672,23.463 L 105.672,20.414 Z" marker-start="none" marker-end="none"/>
     <path d="M 105.672,24.479 L 94.595,24.479 L 96.068,27.528 L 105.672,27.528 L 105.672,24.479 Z" marker-start="none" marker-end="none"/>
     <path d="M 105.672,28.544 L 96.576,28.544 L 98.05,31.593 L 105.672,31.593 L 105.672,28.544 Z" marker-start="none" marker-end="none"/>
     <path d="M 129.037,4.153 L 121.415,4.153 L 121.415,7.202 L 129.037,7.202 L 129.037,4.153 Z" marker-start="none" marker-end="none"/>
     <path d="M 129.037,8.219 L 121.415,8.219 L 121.415,11.267 L 129.037,11.267 L 129.037,8.219 Z" marker-start="none" marker-end="none"/>
     <path d="M 151.904,1.105 C 151.904,0.766 151.87,0.427 151.802,0.088 L 121.415,0.088 L 121.415,3.137 L 151.904,3.137 L 151.904,1.105 Z" marker-start="none" marker-end="none"/>
     <path d="M 129.037,20.414 L 121.415,20.414 L 121.415,23.463 L 129.037,23.463 L 129.037,20.414 Z" marker-start="none" marker-end="none"/>
     <path d="M 151.497,12.284 L 121.415,12.284 L 121.415,15.333 L 146.822,15.333 C 149.058,15.333 150.616,14.316 151.497,12.284 Z" marker-start="none" marker-end="none"/>
     <path d="M 151.904,4.153 L 144.282,4.153 L 144.282,7.202 L 151.904,7.202 L 151.904,4.153 Z" marker-start="none" marker-end="none"/>
     <path d="M 151.497,19.398 C 150.616,17.365 149.058,16.349 146.822,16.349 L 121.415,16.349 L 121.415,19.398 L 151.497,19.398 Z" marker-start="none" marker-end="none"/>
     <path d="M 151.904,8.219 L 144.282,8.219 L 144.282,11.267 L 151.802,11.267 C 151.87,10.929 151.904,10.59 151.904,10.251 L 151.904,8.219 Z" marker-start="none" marker-end="none"/>
     <path d="M 151.904,24.479 L 121.415,24.479 L 121.415,27.528 L 151.802,27.528 C 151.87,27.189 151.904,26.85 151.904,26.512 L 151.904,24.479 Z" marker-start="none" marker-end="none"/>
     <path d="M 151.497,28.544 L 121.415,28.544 L 121.415,31.593 L 146.822,31.593 C 149.058,31.593 150.616,30.577 151.497,28.544 Z" marker-start="none" marker-end="none"/>
     <path d="M 151.904,21.43 C 151.904,21.091 151.87,20.753 151.802,20.414 L 144.282,20.414 L 144.282,23.463 L 151.904,23.463 L 151.904,21.43 Z" marker-start="none" marker-end="none"/>
     <path d="M 162.582,4.153 L 154.96,4.153 L 154.96,7.202 L 162.582,7.202 L 162.582,4.153 Z" marker-start="none" marker-end="none"/>
     <path d="M 162.582,8.219 L 154.96,8.219 L 154.96,11.267 L 162.582,11.267 L 162.582,8.219 Z" marker-start="none" marker-end="none"/>
     <path d="M 182.908,0.088 L 155.062,0.088 C 154.994,0.427 154.96,0.766 154.96,1.105 L 154.96,3.137 L 182.908,3.137 L 182.908,0.088 Z" marker-start="none" marker-end="none"/>
     <path d="M 162.582,20.414 L 154.96,20.414 L 154.96,23.463 L 162.582,23.463 L 162.582,20.414 Z" marker-start="none" marker-end="none"/>
     <path d="M 182.908,12.284 L 154.96,12.284 L 154.96,15.333 L 182.908,15.333 L 182.908,12.284 Z" marker-start="none" marker-end="none"/>
     <path d="M 182.908,16.349 L 154.96,16.349 L 154.96,19.398 L 182.908,19.398 L 182.908,16.349 Z" marker-start="none" marker-end="none"/>
     <path d="M 182.908,24.479 L 154.96,24.479 L 154.96,26.512 C 154.96,26.85 154.994,27.189 155.062,27.528 L 182.908,27.528 L 182.908,24.479 Z" marker-start="none" marker-end="none"/>
     <path d="M 182.908,28.544 L 155.367,28.544 C 156.248,30.577 157.806,31.593 160.042,31.593 L 182.908,31.593 L 182.908,28.544 Z" marker-start="none" marker-end="none"/>
     <path d="M 195.909,3.137 L 194.689,0.088 L 186.051,0.088 L 187.271,3.137 L 195.909,3.137 Z" marker-start="none" marker-end="none"/>
     <path d="M 219.283,4.153 L 187.677,4.153 L 188.897,7.202 L 218.064,7.202 L 219.283,4.153 Z" marker-start="none" marker-end="none"/>
     <path d="M 200.787,15.333 L 199.568,12.284 L 190.929,12.284 L 192.149,15.333 L 200.787,15.333 Z" marker-start="none" marker-end="none"/>
     <path d="M 217.657,8.219 L 189.303,8.219 L 190.523,11.267 L 216.438,11.267 L 217.657,8.219 Z" marker-start="none" marker-end="none"/>
     <path d="M 202.413,19.398 L 201.194,16.349 L 192.555,16.349 L 193.775,19.398 L 202.413,19.398 Z" marker-start="none" marker-end="none"/>
     <path d="M 220.909,0.088 L 212.271,0.088 L 211.052,3.137 L 219.69,3.137 L 220.909,0.088 Z" marker-start="none" marker-end="none"/>
     <path d="M 216.031,12.284 L 207.393,12.284 L 206.173,15.333 L 214.812,15.333 L 216.031,12.284 Z" marker-start="none" marker-end="none"/>
     <path d="M 212.779,20.414 L 204.141,20.414 L 203.48,22.091 L 202.82,20.414 L 194.181,20.414 L 195.401,23.463 L 211.56,23.463 L 212.779,20.414 Z" marker-start="none" marker-end="none"/>
     <path d="M 214.405,16.349 L 205.767,16.349 L 204.547,19.398 L 213.186,19.398 L 214.405,16.349 Z" marker-start="none" marker-end="none"/>
     <path d="M 211.153,24.479 L 195.807,24.479 L 197.027,27.528 L 209.934,27.528 L 211.153,24.479 Z" marker-start="none" marker-end="none"/>
     <path d="M 209.527,28.544 L 197.433,28.544 L 198.653,31.593 L 208.308,31.593 L 209.527,28.544 Z" marker-start="none" marker-end="none"/>
     <path d="M 231.682,4.153 L 224.06,4.153 L 224.06,7.202 L 231.682,7.202 L 231.682,4.153 Z" marker-start="none" marker-end="none"/>
     <path d="M 231.682,8.219 L 224.06,8.219 L 224.06,11.267 L 231.682,11.267 L 231.682,8.219 Z" marker-start="none" marker-end="none"/>
     <path d="M 252.008,0.088 L 224.162,0.088 C 224.094,0.427 224.06,0.766 224.06,1.105 L 224.06,3.137 L 252.008,3.137 L 252.008,0.088 Z" marker-start="none" marker-end="none"/>
     <path d="M 231.682,12.284 L 224.06,12.284 L 224.06,15.333 L 231.682,15.333 L 231.682,12.284 Z" marker-start="none" marker-end="none"/>
     <path d="M 231.682,16.349 L 224.06,16.349 L 224.06,19.398 L 231.682,19.398 L 231.682,16.349 Z" marker-start="none" marker-end="none"/>
     <path d="M 231.682,20.414 L 224.06,20.414 L 224.06,23.463 L 231.682,23.463 L 231.682,20.414 Z" marker-start="none" marker-end="none"/>
     <path d="M 231.682,24.479 L 224.06,24.479 L 224.06,27.528 L 231.682,27.528 L 231.682,24.479 Z" marker-start="none" marker-end="none"/>
     <path d="M 231.682,28.544 L 224.06,28.544 L 224.06,31.593 L 231.682,31.593 L 231.682,28.544 Z" marker-start="none" marker-end="none"/>
     <path d="M 262.671,4.153 L 255.049,4.153 L 255.049,7.202 L 262.671,7.202 L 262.671,4.153 Z" marker-start="none" marker-end="none"/>
     <path d="M 262.671,8.219 L 255.049,8.219 L 255.049,11.267 L 262.671,11.267 L 262.671,8.219 Z" marker-start="none" marker-end="none"/>
     <path d="M 282.997,0.088 L 255.151,0.088 C 255.083,0.427 255.049,0.766 255.049,1.105 L 255.049,3.137 L 282.997,3.137 L 282.997,0.088 Z" marker-start="none" marker-end="none"/>
     <path d="M 262.671,20.414 L 255.049,20.414 L 255.049,23.463 L 262.671,23.463 L 262.671,20.414 Z" marker-start="none" marker-end="none"/>
     <path d="M 282.997,12.284 L 255.049,12.284 L 255.049,15.333 L 282.997,15.333 L 282.997,12.284 Z" marker-start="none" marker-end="none"/>
     <path d="M 282.997,16.349 L 255.049,16.349 L 255.049,19.398 L 282.997,19.398 L 282.997,16.349 Z" marker-start="none" marker-end="none"/>
     <path d="M 282.997,24.479 L 255.049,24.479 L 255.049,26.512 C 255.049,26.85 255.083,27.189 255.151,27.528 L 282.997,27.528 L 282.997,24.479 Z" marker-start="none" marker-end="none"/>
     <path d="M 282.997,28.544 L 255.456,28.544 C 256.337,30.577 257.895,31.593 260.131,31.593 L 282.997,31.593 L 282.997,28.544 Z" marker-start="none" marker-end="none"/>
    </g>
   </g>
  </g>
 </g>
</svg>
